<?xml version="1.0" encoding="UTF-8" standalone="no"?>
<svg
   xmlns:dc="http://purl.org/dc/elements/1.1/"
   xmlns:cc="http://creativecommons.org/ns#"
   xmlns:rdf="http://www.w3.org/1999/02/22-rdf-syntax-ns#"
   xmlns:svg="http://www.w3.org/2000/svg"
   xmlns="http://www.w3.org/2000/svg"
   version="1.1"
   id="svg2"
   xml:space="preserve"
   width="757.63678"
   height="228.02773"
   viewBox="0 0 757.63678 228.02773"><metadata
     id="metadata8"><rdf:RDF><cc:Work
         rdf:about=""><dc:format>image/svg+xml</dc:format><dc:type
           rdf:resource="http://purl.org/dc/dcmitype/StillImage" /><dc:title></dc:title></cc:Work></rdf:RDF></metadata><defs
     id="defs6"><clipPath
       clipPathUnits="userSpaceOnUse"
       id="clipPath18"><path
         d="M 0,792 H 612 V 0 H 0 Z"
         id="path16" /></clipPath></defs><g
     id="g10"
     transform="matrix(1.3333333,0,0,-1.3333333,-14.535066,686.38451)"><g
       id="g12"><g
         id="g14"
         clip-path="url(#clipPath18)"><g
           id="g142"
           transform="translate(189.9658,455.8735)"><path
             d="m 0,0 c 2.573,-3.912 4.961,-7.541 7.712,-11.724 -12.957,-18.454 -27.699,-34.27 -52.029,-36.928 -11.785,-1.288 -23.419,0.517 -32.689,7.513 -9.963,7.519 -18.784,16.743 -27.196,26.039 -5.547,6.131 3.16,9.167 4.689,15.418 12.965,-18.633 25.817,-36.192 50.01,-36.106 C -25.163,-35.702 -12.36,-18.232 0,0"
             style="fill:#231f20;fill-opacity:1;fill-rule:nonzero;stroke:none"
             id="path144" /></g><g
           id="g146"
           transform="translate(69.0103,466.8306)"><path
             d="m 0,0 c -5.304,6.32 -9.957,12.581 -15.35,18.125 -8.541,8.784 -18.907,14.365 -31.451,14.889 -5.092,0.213 -7.723,2.381 -7.476,7.584 0.265,5.578 4.157,5.742 8.312,5.518 16.14,-0.873 29.193,-8.194 40.407,-19.311 1.895,-1.879 3.738,-3.836 5.396,-5.923 C 9.237,9.055 9.397,13.072 0,0"
             style="fill:#231f20;fill-opacity:1;fill-rule:nonzero;stroke:none"
             id="path148" /></g><g
           id="g150"
           transform="translate(571.9883,513.2378)"><path
             d="m 0,0 c -60.388,0 -314.059,-0.11 -314.68,-0.306 -19.185,-1.382 -33.779,-11.107 -45.565,-25.508 -9.586,-11.715 -8.577,-7.468 -0.966,-19.915 0.226,-0.371 0.671,-0.609 1.258,-1.123 2.611,3.516 5.075,7.103 7.811,10.471 9.905,12.196 21.46,21.871 38.03,22.943 1.266,0.081 254.385,0.509 314.112,0.509 C 8.319,-12.929 8.333,0 0,0"
             style="fill:#231f20;fill-opacity:1;fill-rule:nonzero;stroke:none"
             id="path152" /></g><g
           id="g154"
           transform="translate(569.8437,421.8228)"><path
             d="m 0,0 h -309.491 c -0.466,0.09 -0.945,0.16 -1.449,0.185 -15.275,0.764 -26.782,8.373 -36.006,19.619 -6.449,7.863 -11.791,16.622 -17.768,24.88 -6.547,9.045 -12.688,18.468 -20.031,26.832 -10.172,11.586 -22.766,19.556 -38.706,21.134 -23.492,2.325 -41.036,-8.386 -54.828,-25.862 -9.158,-11.603 -16.867,-24.339 -25.347,-36.482 -11.172,-15.994 -24.082,-29.384 -45.472,-30.238 -4.313,-0.172 -6.338,-3.11 -6.088,-7.505 0.26,-4.576 3.183,-5.415 7.032,-5.375 12.927,0.135 25.087,3.891 34.02,12.802 10.742,10.716 19.851,23.099 29.34,35.02 8.449,10.615 15.318,22.732 24.895,32.15 18.3,17.997 43.928,17.42 61.985,-0.841 8.12,-8.211 14.324,-18.308 21.408,-27.542 8.997,-11.726 17.285,-24.098 27.215,-34.977 8.626,-9.451 19.99,-14.724 34.431,-16.36 0.668,-0.234 1.415,-0.369 2.25,-0.369 H 0 C 8.319,-12.929 8.333,0 0,0"
             style="fill:#231f20;fill-opacity:1;fill-rule:nonzero;stroke:none"
             id="path156" /></g><g
           id="g158"
           transform="translate(267.9243,486.6963)"><path
             d="M 0,0 296.099,0.243 296.094,6.199 -0.004,5.957 c -17.401,-0.002 -31.557,-14.158 -31.557,-31.559 0,-17.402 14.157,-31.559 31.559,-31.559 h 296.099 v 5.956 H -0.002 c -14.118,0 -25.602,11.485 -25.602,25.603 C -25.604,-11.485 -14.12,0 -0.002,0"
             style="fill:#231f20;fill-opacity:1;fill-rule:nonzero;stroke:none"
             id="path160" /></g><g
           id="g162"
           transform="translate(271.834,471.3359)"><path
             d="m 0,0 c 24.349,0.476 48.698,0.791 73.047,1.191 l 73.047,0.894 36.523,0.566 c 12.174,0.19 24.349,0.202 36.524,0.03 l 18.261,-0.35 C 243.489,2.154 249.576,2.036 255.664,1.797 267.838,1.383 280.013,0.854 292.187,0 v -0.596 c -12.174,-0.853 -24.349,-1.383 -36.523,-1.797 -6.088,-0.238 -12.175,-0.357 -18.262,-0.533 l -18.261,-0.35 c -12.175,-0.173 -24.35,-0.16 -36.524,0.03 L 146.094,-2.68 73.047,-1.787 C 48.698,-1.386 24.349,-1.071 0,-0.596 Z"
             style="fill:#231f20;fill-opacity:1;fill-rule:nonzero;stroke:none"
             id="path164" /></g><g
           id="g166"
           transform="translate(271.834,450.3335)"><path
             d="m 0,0 c 24.349,0.476 48.698,0.791 73.047,1.191 l 73.047,0.894 36.523,0.566 c 12.174,0.19 24.349,0.202 36.524,0.03 l 18.261,-0.35 C 243.489,2.154 249.576,2.036 255.664,1.797 267.838,1.383 280.013,0.854 292.187,0 v -0.595 c -12.174,-0.854 -24.349,-1.384 -36.523,-1.798 -6.088,-0.238 -12.175,-0.356 -18.262,-0.533 l -18.261,-0.35 c -12.175,-0.172 -24.35,-0.16 -36.524,0.03 L 146.094,-2.68 73.047,-1.787 C 48.698,-1.386 24.349,-1.071 0,-0.595 Z"
             style="fill:#231f20;fill-opacity:1;fill-rule:nonzero;stroke:none"
             id="path168" /></g><path
           d="m 116.988,444.258 h -5.957 v 33.671 h 5.957 z"
           style="fill:#231f20;fill-opacity:1;fill-rule:nonzero;stroke:none"
           id="path170" /><path
           d="m 50.48,444.258 h -5.957 v 33.671 h 5.957 z"
           style="fill:#231f20;fill-opacity:1;fill-rule:nonzero;stroke:none"
           id="path172" /><path
           d="m 170.847,445.005 h -5.957 v 33.671 h 5.957 z"
           style="fill:#231f20;fill-opacity:1;fill-rule:nonzero;stroke:none"
           id="path174" /><path
           d="m 143.785,433.139 h -5.957 v 57.404 h 5.957 z"
           style="fill:#231f20;fill-opacity:1;fill-rule:nonzero;stroke:none"
           id="path176" /><path
           d="m 27.012,433.139 h -5.957 v 57.404 h 5.957 z"
           style="fill:#231f20;fill-opacity:1;fill-rule:nonzero;stroke:none"
           id="path178" /><g
           id="g180"
           transform="translate(26.9663,369.7275)"><path
             d="m 0,0 c -0.5,-1.498 -1.061,-3.165 -1.685,-5.001 -0.624,-1.837 -1.186,-3.7 -1.685,-5.59 H 3.263 C 2.763,-8.665 2.255,-6.784 1.738,-4.947 1.221,-3.111 0.749,-1.463 0.321,0 Z m -6.418,6.899 c 0.606,0.357 1.524,0.696 2.754,1.017 1.23,0.321 2.469,0.481 3.718,0.481 1.782,0 3.36,-0.258 4.733,-0.775 C 6.16,7.104 7.042,6.293 7.435,5.188 8.077,3.334 8.772,1.177 9.521,-1.284 c 0.749,-2.46 1.498,-5.001 2.247,-7.621 0.748,-2.621 1.479,-5.207 2.192,-7.756 0.713,-2.55 1.337,-4.806 1.873,-6.767 -0.429,-0.5 -1.07,-0.9 -1.926,-1.203 -0.856,-0.303 -1.872,-0.455 -3.049,-0.455 -0.856,0 -1.578,0.072 -2.166,0.214 -0.588,0.143 -1.07,0.356 -1.444,0.643 -0.375,0.284 -0.678,0.659 -0.91,1.123 -0.232,0.462 -0.437,0.998 -0.615,1.604 l -0.963,3.69 h -9.681 c -0.286,-1.069 -0.571,-2.174 -0.855,-3.316 -0.286,-1.142 -0.571,-2.246 -0.856,-3.315 -0.5,-0.179 -1.026,-0.33 -1.578,-0.455 -0.554,-0.125 -1.222,-0.188 -2.006,-0.188 -1.819,0 -3.165,0.313 -4.038,0.937 -0.874,0.623 -1.311,1.488 -1.311,2.593 0,0.499 0.071,0.998 0.214,1.498 0.143,0.499 0.303,1.087 0.482,1.765 0.249,0.963 0.597,2.157 1.043,3.584 0.445,1.426 0.936,2.969 1.471,4.627 0.534,1.657 1.105,3.36 1.711,5.107 0.606,1.747 1.177,3.397 1.712,4.949 0.535,1.55 1.024,2.932 1.471,4.144 0.445,1.212 0.793,2.14 1.043,2.781"
             style="fill:#231f20;fill-opacity:1;fill-rule:nonzero;stroke:none"
             id="path182" /></g><g
           id="g184"
           transform="translate(26.9663,369.7275)"><path
             d="m 0,0 c -0.5,-1.498 -1.061,-3.165 -1.685,-5.001 -0.624,-1.837 -1.186,-3.7 -1.685,-5.59 H 3.263 C 2.763,-8.665 2.255,-6.784 1.738,-4.947 1.221,-3.111 0.749,-1.463 0.321,0 Z m -6.418,6.899 c 0.606,0.357 1.524,0.696 2.754,1.017 1.23,0.321 2.469,0.481 3.718,0.481 1.782,0 3.36,-0.258 4.733,-0.775 C 6.16,7.104 7.042,6.293 7.435,5.188 8.077,3.334 8.772,1.177 9.521,-1.284 c 0.749,-2.46 1.498,-5.001 2.247,-7.621 0.748,-2.621 1.479,-5.207 2.192,-7.756 0.713,-2.55 1.337,-4.806 1.873,-6.767 -0.429,-0.5 -1.07,-0.9 -1.926,-1.203 -0.856,-0.303 -1.872,-0.455 -3.049,-0.455 -0.856,0 -1.578,0.072 -2.166,0.214 -0.588,0.143 -1.07,0.356 -1.444,0.643 -0.375,0.284 -0.678,0.659 -0.91,1.123 -0.232,0.462 -0.437,0.998 -0.615,1.604 l -0.963,3.69 h -9.681 c -0.286,-1.069 -0.571,-2.174 -0.855,-3.316 -0.286,-1.142 -0.571,-2.246 -0.856,-3.315 -0.5,-0.179 -1.026,-0.33 -1.578,-0.455 -0.554,-0.125 -1.222,-0.188 -2.006,-0.188 -1.819,0 -3.165,0.313 -4.038,0.937 -0.874,0.623 -1.311,1.488 -1.311,2.593 0,0.499 0.071,0.998 0.214,1.498 0.143,0.499 0.303,1.087 0.482,1.765 0.249,0.963 0.597,2.157 1.043,3.584 0.445,1.426 0.936,2.969 1.471,4.627 0.534,1.657 1.105,3.36 1.711,5.107 0.606,1.747 1.177,3.397 1.712,4.949 0.535,1.55 1.024,2.932 1.471,4.144 0.445,1.212 0.793,2.14 1.043,2.781 z"
             style="fill:none;stroke:#ffffff;stroke-width:1;stroke-linecap:butt;stroke-linejoin:miter;stroke-miterlimit:10;stroke-dasharray:none;stroke-opacity:1"
             id="path186" /></g><g
           id="g188"
           transform="translate(55.582,354.1094)"><path
             d="M 0,0 C 0,-0.928 0.294,-1.587 0.883,-1.979 1.471,-2.372 2.3,-2.567 3.37,-2.567 c 0.535,0 1.087,0.044 1.658,0.133 0.57,0.088 1.07,0.205 1.497,0.348 0.322,-0.393 0.598,-0.829 0.829,-1.31 0.232,-0.482 0.348,-1.062 0.348,-1.739 0,-1.355 -0.508,-2.461 -1.524,-3.316 -1.016,-0.856 -2.808,-1.284 -5.376,-1.284 -3.138,0 -5.554,0.714 -7.247,2.139 -1.694,1.426 -2.541,3.744 -2.541,6.954 v 22.893 c 0.392,0.106 0.954,0.222 1.685,0.348 0.731,0.124 1.506,0.186 2.327,0.186 1.569,0 2.789,-0.276 3.664,-0.829 C -0.437,21.403 0,20.235 0,18.453 V 15.029 H 7.007 C 7.221,14.637 7.426,14.147 7.622,13.559 7.818,12.971 7.917,12.319 7.917,11.606 7.917,10.358 7.64,9.458 7.087,8.905 6.534,8.353 5.794,8.076 4.868,8.076 H 0 Z"
             style="fill:#231f20;fill-opacity:1;fill-rule:nonzero;stroke:none"
             id="path190" /></g><g
           id="g192"
           transform="translate(55.582,354.1094)"><path
             d="M 0,0 C 0,-0.928 0.294,-1.587 0.883,-1.979 1.471,-2.372 2.3,-2.567 3.37,-2.567 c 0.535,0 1.087,0.044 1.658,0.133 0.57,0.088 1.07,0.205 1.497,0.348 0.322,-0.393 0.598,-0.829 0.829,-1.31 0.232,-0.482 0.348,-1.062 0.348,-1.739 0,-1.355 -0.508,-2.461 -1.524,-3.316 -1.016,-0.856 -2.808,-1.284 -5.376,-1.284 -3.138,0 -5.554,0.714 -7.247,2.139 -1.694,1.426 -2.541,3.744 -2.541,6.954 v 22.893 c 0.392,0.106 0.954,0.222 1.685,0.348 0.731,0.124 1.506,0.186 2.327,0.186 1.569,0 2.789,-0.276 3.664,-0.829 C -0.437,21.403 0,20.235 0,18.453 V 15.029 H 7.007 C 7.221,14.637 7.426,14.147 7.622,13.559 7.818,12.971 7.917,12.319 7.917,11.606 7.917,10.358 7.64,9.458 7.087,8.905 6.534,8.353 5.794,8.076 4.868,8.076 H 0 Z"
             style="fill:none;stroke:#ffffff;stroke-width:1;stroke-linecap:butt;stroke-linejoin:miter;stroke-miterlimit:10;stroke-dasharray:none;stroke-opacity:1"
             id="path194" /></g><g
           id="g196"
           transform="translate(77.1372,345.2305)"><path
             d="m 0,0 c -0.393,-0.071 -0.972,-0.169 -1.738,-0.294 -0.767,-0.125 -1.543,-0.187 -2.327,-0.187 -0.785,0 -1.489,0.053 -2.113,0.16 C -6.802,-0.214 -7.328,0 -7.756,0.32 -8.184,0.642 -8.514,1.078 -8.745,1.631 -8.978,2.184 -9.093,2.905 -9.093,3.798 V 34.82 c 0.392,0.071 0.971,0.169 1.739,0.294 0.766,0.124 1.542,0.188 2.326,0.188 0.784,0 1.488,-0.054 2.113,-0.161 0.623,-0.107 1.15,-0.321 1.578,-0.642 0.428,-0.321 0.757,-0.758 0.989,-1.311 C -0.116,32.636 0,31.913 0,31.022 Z"
             style="fill:#231f20;fill-opacity:1;fill-rule:nonzero;stroke:none"
             id="path198" /></g><g
           id="g200"
           transform="translate(77.1372,345.2305)"><path
             d="m 0,0 c -0.393,-0.071 -0.972,-0.169 -1.738,-0.294 -0.767,-0.125 -1.543,-0.187 -2.327,-0.187 -0.785,0 -1.489,0.053 -2.113,0.16 C -6.802,-0.214 -7.328,0 -7.756,0.32 -8.184,0.642 -8.514,1.078 -8.745,1.631 -8.978,2.184 -9.093,2.905 -9.093,3.798 V 34.82 c 0.392,0.071 0.971,0.169 1.739,0.294 0.766,0.124 1.542,0.188 2.326,0.188 0.784,0 1.488,-0.054 2.113,-0.161 0.623,-0.107 1.15,-0.321 1.578,-0.642 0.428,-0.321 0.757,-0.758 0.989,-1.311 C -0.116,32.636 0,31.913 0,31.022 Z"
             style="fill:none;stroke:#ffffff;stroke-width:1;stroke-linecap:butt;stroke-linejoin:miter;stroke-miterlimit:10;stroke-dasharray:none;stroke-opacity:1"
             id="path202" /></g><g
           id="g204"
           transform="translate(93.9858,350.9531)"><path
             d="m 0,0 c 0.606,0 1.274,0.062 2.006,0.187 0.73,0.125 1.274,0.294 1.631,0.508 v 4.28 L -0.214,4.653 C -1.213,4.582 -2.033,4.368 -2.674,4.012 -3.316,3.655 -3.637,3.12 -3.637,2.407 -3.637,1.693 -3.361,1.114 -2.808,0.669 -2.256,0.223 -1.32,0 0,0 m -0.428,21.021 c 1.926,0 3.681,-0.197 5.269,-0.588 1.586,-0.393 2.941,-0.99 4.065,-1.792 1.123,-0.803 1.987,-1.819 2.594,-3.049 0.605,-1.231 0.909,-2.684 0.909,-4.36 V -0.749 c 0,-0.927 -0.259,-1.685 -0.776,-2.272 C 11.116,-3.61 10.501,-4.118 9.788,-4.546 7.47,-5.937 4.207,-6.632 0,-6.632 c -1.891,0 -3.593,0.179 -5.108,0.534 -1.516,0.357 -2.817,0.892 -3.905,1.606 -1.088,0.713 -1.925,1.622 -2.513,2.727 -0.589,1.105 -0.883,2.389 -0.883,3.851 0,2.461 0.73,4.351 2.193,5.67 1.462,1.319 3.726,2.14 6.793,2.461 l 7.006,0.748 v 0.375 c 0,1.033 -0.454,1.773 -1.363,2.22 -0.909,0.445 -2.22,0.668 -3.931,0.668 -1.356,0 -2.675,-0.143 -3.959,-0.428 -1.284,-0.285 -2.443,-0.642 -3.476,-1.07 -0.464,0.321 -0.856,0.811 -1.177,1.471 -0.321,0.659 -0.482,1.346 -0.482,2.06 0,0.926 0.223,1.666 0.669,2.219 0.446,0.552 1.132,1.025 2.059,1.417 1.034,0.392 2.255,0.677 3.664,0.856 1.409,0.179 2.736,0.268 3.985,0.268"
             style="fill:#231f20;fill-opacity:1;fill-rule:nonzero;stroke:none"
             id="path206" /></g><g
           id="g208"
           transform="translate(93.9858,350.9531)"><path
             d="m 0,0 c 0.606,0 1.274,0.062 2.006,0.187 0.73,0.125 1.274,0.294 1.631,0.508 v 4.28 L -0.214,4.653 C -1.213,4.582 -2.033,4.368 -2.674,4.012 -3.316,3.655 -3.637,3.12 -3.637,2.407 -3.637,1.693 -3.361,1.114 -2.808,0.669 -2.256,0.223 -1.32,0 0,0 Z m -0.428,21.021 c 1.926,0 3.681,-0.197 5.269,-0.588 1.586,-0.393 2.941,-0.99 4.065,-1.792 1.123,-0.803 1.987,-1.819 2.594,-3.049 0.605,-1.231 0.909,-2.684 0.909,-4.36 V -0.749 c 0,-0.927 -0.259,-1.685 -0.776,-2.272 C 11.116,-3.61 10.501,-4.118 9.788,-4.546 7.47,-5.937 4.207,-6.632 0,-6.632 c -1.891,0 -3.593,0.179 -5.108,0.534 -1.516,0.357 -2.817,0.892 -3.905,1.606 -1.088,0.713 -1.925,1.622 -2.513,2.727 -0.589,1.105 -0.883,2.389 -0.883,3.851 0,2.461 0.73,4.351 2.193,5.67 1.462,1.319 3.726,2.14 6.793,2.461 l 7.006,0.748 v 0.375 c 0,1.033 -0.454,1.773 -1.363,2.22 -0.909,0.445 -2.22,0.668 -3.931,0.668 -1.356,0 -2.675,-0.143 -3.959,-0.428 -1.284,-0.285 -2.443,-0.642 -3.476,-1.07 -0.464,0.321 -0.856,0.811 -1.177,1.471 -0.321,0.659 -0.482,1.346 -0.482,2.06 0,0.926 0.223,1.666 0.669,2.219 0.446,0.552 1.132,1.025 2.059,1.417 1.034,0.392 2.255,0.677 3.664,0.856 1.409,0.179 2.736,0.268 3.985,0.268 z"
             style="fill:none;stroke:#ffffff;stroke-width:1;stroke-linecap:butt;stroke-linejoin:miter;stroke-miterlimit:10;stroke-dasharray:none;stroke-opacity:1"
             id="path210" /></g><g
           id="g212"
           transform="translate(133.8867,352.9326)"><path
             d="m 0,0 c 0,-2.711 -1.016,-4.832 -3.048,-6.365 -2.033,-1.532 -5.028,-2.3 -8.987,-2.3 -1.497,0 -2.888,0.106 -4.172,0.321 -1.283,0.214 -2.379,0.544 -3.289,0.99 -0.909,0.445 -1.623,1.006 -2.139,1.684 -0.518,0.677 -0.776,1.48 -0.776,2.407 0,0.856 0.178,1.578 0.535,2.166 0.356,0.588 0.784,1.078 1.284,1.471 1.033,-0.57 2.219,-1.079 3.556,-1.524 1.338,-0.447 2.88,-0.668 4.627,-0.668 1.105,0 1.952,0.16 2.541,0.481 0.588,0.32 0.882,0.748 0.882,1.283 0,0.499 -0.214,0.891 -0.641,1.177 -0.428,0.285 -1.142,0.517 -2.14,0.695 l -1.605,0.322 c -3.102,0.605 -5.411,1.559 -6.926,2.861 -1.516,1.301 -2.273,3.164 -2.273,5.589 0,1.319 0.284,2.514 0.855,3.584 0.57,1.07 1.373,1.961 2.407,2.675 1.034,0.713 2.273,1.264 3.718,1.658 1.444,0.391 3.039,0.588 4.787,0.588 1.319,0 2.558,-0.099 3.717,-0.294 1.158,-0.197 2.167,-0.491 3.022,-0.883 0.856,-0.393 1.533,-0.9 2.033,-1.524 0.499,-0.624 0.748,-1.365 0.748,-2.22 0,-0.82 -0.152,-1.525 -0.454,-2.112 -0.304,-0.589 -0.687,-1.08 -1.15,-1.472 -0.286,0.179 -0.714,0.365 -1.284,0.562 -0.571,0.196 -1.195,0.374 -1.872,0.535 -0.678,0.161 -1.364,0.294 -2.059,0.401 -0.695,0.107 -1.329,0.16 -1.899,0.16 -1.177,0 -2.086,-0.134 -2.728,-0.4 -0.642,-0.268 -0.962,-0.688 -0.962,-1.258 0,-0.393 0.177,-0.713 0.534,-0.962 0.356,-0.25 1.034,-0.482 2.033,-0.695 L -9.467,8.558 C -6.044,7.773 -3.61,6.694 -2.166,5.322 -0.722,3.948 0,2.175 0,0"
             style="fill:#231f20;fill-opacity:1;fill-rule:nonzero;stroke:none"
             id="path214" /></g><g
           id="g216"
           transform="translate(133.8867,352.9326)"><path
             d="m 0,0 c 0,-2.711 -1.016,-4.832 -3.048,-6.365 -2.033,-1.532 -5.028,-2.3 -8.987,-2.3 -1.497,0 -2.888,0.106 -4.172,0.321 -1.283,0.214 -2.379,0.544 -3.289,0.99 -0.909,0.445 -1.623,1.006 -2.139,1.684 -0.518,0.677 -0.776,1.48 -0.776,2.407 0,0.856 0.178,1.578 0.535,2.166 0.356,0.588 0.784,1.078 1.284,1.471 1.033,-0.57 2.219,-1.079 3.556,-1.524 1.338,-0.447 2.88,-0.668 4.627,-0.668 1.105,0 1.952,0.16 2.541,0.481 0.588,0.32 0.882,0.748 0.882,1.283 0,0.499 -0.214,0.891 -0.641,1.177 -0.428,0.285 -1.142,0.517 -2.14,0.695 l -1.605,0.322 c -3.102,0.605 -5.411,1.559 -6.926,2.861 -1.516,1.301 -2.273,3.164 -2.273,5.589 0,1.319 0.284,2.514 0.855,3.584 0.57,1.07 1.373,1.961 2.407,2.675 1.034,0.713 2.273,1.264 3.718,1.658 1.444,0.391 3.039,0.588 4.787,0.588 1.319,0 2.558,-0.099 3.717,-0.294 1.158,-0.197 2.167,-0.491 3.022,-0.883 0.856,-0.393 1.533,-0.9 2.033,-1.524 0.499,-0.624 0.748,-1.365 0.748,-2.22 0,-0.82 -0.152,-1.525 -0.454,-2.112 -0.304,-0.589 -0.687,-1.08 -1.15,-1.472 -0.286,0.179 -0.714,0.365 -1.284,0.562 -0.571,0.196 -1.195,0.374 -1.872,0.535 -0.678,0.161 -1.364,0.294 -2.059,0.401 -0.695,0.107 -1.329,0.16 -1.899,0.16 -1.177,0 -2.086,-0.134 -2.728,-0.4 -0.642,-0.268 -0.962,-0.688 -0.962,-1.258 0,-0.393 0.177,-0.713 0.534,-0.962 0.356,-0.25 1.034,-0.482 2.033,-0.695 L -9.467,8.558 C -6.044,7.773 -3.61,6.694 -2.166,5.322 -0.722,3.948 0,2.175 0,0 Z"
             style="fill:none;stroke:#ffffff;stroke-width:1;stroke-linecap:butt;stroke-linejoin:miter;stroke-miterlimit:10;stroke-dasharray:none;stroke-opacity:1"
             id="path218" /></g><g
           id="g220"
           transform="translate(157.1528,358.1738)"><path
             d="m 0,0 c 0,-2.175 0.419,-3.843 1.257,-5.001 0.837,-1.159 2.006,-1.738 3.503,-1.738 1.498,0 2.648,0.589 3.45,1.765 0.803,1.177 1.204,2.835 1.204,4.974 0,2.14 -0.411,3.789 -1.23,4.948 C 7.363,6.106 6.205,6.687 4.707,6.687 3.209,6.687 2.05,6.106 1.23,4.948 0.41,3.789 0,2.14 0,0 m 18.721,0 c 0,-2.211 -0.34,-4.181 -1.016,-5.91 -0.679,-1.73 -1.632,-3.183 -2.862,-4.36 -1.23,-1.176 -2.701,-2.068 -4.413,-2.673 -1.711,-0.607 -3.619,-0.91 -5.723,-0.91 -2.104,0 -4.012,0.321 -5.723,0.963 -1.712,0.642 -3.183,1.559 -4.413,2.754 -1.23,1.195 -2.184,2.648 -2.862,4.36 -0.677,1.712 -1.016,3.637 -1.016,5.776 0,2.104 0.339,4.012 1.016,5.724 0.678,1.712 1.632,3.164 2.862,4.359 1.23,1.194 2.701,2.112 4.413,2.754 1.711,0.642 3.619,0.963 5.723,0.963 2.104,0 4.012,-0.33 5.723,-0.989 1.712,-0.661 3.183,-1.587 4.413,-2.782 C 16.073,8.834 17.026,7.382 17.705,5.67 18.381,3.958 18.721,2.068 18.721,0"
             style="fill:#231f20;fill-opacity:1;fill-rule:nonzero;stroke:none"
             id="path222" /></g><g
           id="g224"
           transform="translate(157.1528,358.1738)"><path
             d="m 0,0 c 0,-2.175 0.419,-3.843 1.257,-5.001 0.837,-1.159 2.006,-1.738 3.503,-1.738 1.498,0 2.648,0.589 3.45,1.765 0.803,1.177 1.204,2.835 1.204,4.974 0,2.14 -0.411,3.789 -1.23,4.948 C 7.363,6.106 6.205,6.687 4.707,6.687 3.209,6.687 2.05,6.106 1.23,4.948 0.41,3.789 0,2.14 0,0 Z m 18.721,0 c 0,-2.211 -0.34,-4.181 -1.016,-5.91 -0.679,-1.73 -1.632,-3.183 -2.862,-4.36 -1.23,-1.176 -2.701,-2.068 -4.413,-2.673 -1.711,-0.607 -3.619,-0.91 -5.723,-0.91 -2.104,0 -4.012,0.321 -5.723,0.963 -1.712,0.642 -3.183,1.559 -4.413,2.754 -1.23,1.195 -2.184,2.648 -2.862,4.36 -0.677,1.712 -1.016,3.637 -1.016,5.776 0,2.104 0.339,4.012 1.016,5.724 0.678,1.712 1.632,3.164 2.862,4.359 1.23,1.194 2.701,2.112 4.413,2.754 1.711,0.642 3.619,0.963 5.723,0.963 2.104,0 4.012,-0.33 5.723,-0.989 1.712,-0.661 3.183,-1.587 4.413,-2.782 C 16.073,8.834 17.026,7.382 17.705,5.67 18.381,3.958 18.721,2.068 18.721,0 Z"
             style="fill:none;stroke:#ffffff;stroke-width:1;stroke-linecap:butt;stroke-linejoin:miter;stroke-miterlimit:10;stroke-dasharray:none;stroke-opacity:1"
             id="path226" /></g><g
           id="g228"
           transform="translate(180.4199,371.1719)"><path
             d="m 0,0 c 0,1.818 0.312,3.378 0.936,4.68 0.624,1.301 1.471,2.371 2.541,3.209 1.069,0.838 2.327,1.453 3.771,1.845 1.444,0.392 2.986,0.589 4.627,0.589 2.638,0 4.581,-0.347 5.83,-1.043 1.247,-0.695 1.872,-1.882 1.872,-3.557 0,-0.714 -0.153,-1.356 -0.455,-1.926 C 18.818,3.227 18.488,2.799 18.132,2.514 17.455,2.691 16.75,2.843 16.02,2.969 15.289,3.093 14.442,3.155 13.479,3.155 11.945,3.155 10.751,2.896 9.896,2.38 9.04,1.862 8.612,0.963 8.612,-0.321 v -1.712 h 8.771 c 0.215,-0.393 0.419,-0.882 0.616,-1.471 0.195,-0.588 0.294,-1.239 0.294,-1.952 0,-1.248 -0.277,-2.148 -0.829,-2.701 -0.553,-0.553 -1.293,-0.829 -2.22,-0.829 H 9.093 v -16.955 c -0.357,-0.108 -0.919,-0.214 -1.685,-0.322 -0.767,-0.106 -1.56,-0.16 -2.38,-0.16 -0.785,0 -1.489,0.054 -2.113,0.16 -0.624,0.108 -1.15,0.322 -1.578,0.642 -0.428,0.321 -0.758,0.758 -0.989,1.31 C 0.115,-23.758 0,-23.036 0,-22.144 Z"
             style="fill:#231f20;fill-opacity:1;fill-rule:nonzero;stroke:none"
             id="path230" /></g><g
           id="g232"
           transform="translate(180.4199,371.1719)"><path
             d="m 0,0 c 0,1.818 0.312,3.378 0.936,4.68 0.624,1.301 1.471,2.371 2.541,3.209 1.069,0.838 2.327,1.453 3.771,1.845 1.444,0.392 2.986,0.589 4.627,0.589 2.638,0 4.581,-0.347 5.83,-1.043 1.247,-0.695 1.872,-1.882 1.872,-3.557 0,-0.714 -0.153,-1.356 -0.455,-1.926 C 18.818,3.227 18.488,2.799 18.132,2.514 17.455,2.691 16.75,2.843 16.02,2.969 15.289,3.093 14.442,3.155 13.479,3.155 11.945,3.155 10.751,2.896 9.896,2.38 9.04,1.862 8.612,0.963 8.612,-0.321 v -1.712 h 8.771 c 0.215,-0.393 0.419,-0.882 0.616,-1.471 0.195,-0.588 0.294,-1.239 0.294,-1.952 0,-1.248 -0.277,-2.148 -0.829,-2.701 -0.553,-0.553 -1.293,-0.829 -2.22,-0.829 H 9.093 v -16.955 c -0.357,-0.108 -0.919,-0.214 -1.685,-0.322 -0.767,-0.106 -1.56,-0.16 -2.38,-0.16 -0.785,0 -1.489,0.054 -2.113,0.16 -0.624,0.108 -1.15,0.322 -1.578,0.642 -0.428,0.321 -0.758,0.758 -0.989,1.31 C 0.115,-23.758 0,-23.036 0,-22.144 Z"
             style="fill:none;stroke:#ffffff;stroke-width:1;stroke-linecap:butt;stroke-linejoin:miter;stroke-miterlimit:10;stroke-dasharray:none;stroke-opacity:1"
             id="path234" /></g><g
           id="g236"
           transform="translate(234.1206,346.2461)"><path
             d="m 0,0 c -0.5,-0.428 -1.275,-0.802 -2.327,-1.123 -1.052,-0.32 -2.202,-0.481 -3.45,-0.481 -1.497,0 -2.781,0.223 -3.851,0.668 -1.069,0.446 -1.801,1.061 -2.193,1.846 -0.392,0.819 -0.874,1.88 -1.444,3.182 -0.57,1.302 -1.168,2.755 -1.792,4.359 -0.624,1.605 -1.266,3.308 -1.925,5.109 -0.661,1.799 -1.293,3.627 -1.899,5.482 -0.607,1.854 -1.177,3.672 -1.712,5.456 -0.534,1.782 -0.998,3.458 -1.39,5.027 0.499,0.499 1.221,0.954 2.166,1.365 0.944,0.409 1.952,0.615 3.022,0.615 1.319,0 2.398,-0.277 3.236,-0.829 0.837,-0.554 1.453,-1.578 1.845,-3.076 0.963,-3.496 1.934,-6.838 2.915,-10.029 0.981,-3.192 2.006,-6.517 3.076,-9.975 h 0.321 c 0.963,3.351 1.952,7.007 2.968,10.965 1.017,3.958 1.988,7.897 2.915,11.82 0.642,0.321 1.329,0.589 2.06,0.803 0.73,0.213 1.559,0.321 2.487,0.321 1.319,0 2.442,-0.295 3.369,-0.883 0.927,-0.589 1.391,-1.56 1.391,-2.915 0,-0.785 -0.187,-1.926 -0.561,-3.424 C 8.852,22.786 8.371,21.102 7.782,19.229 7.194,17.357 6.534,15.404 5.803,13.372 5.072,11.34 4.341,9.423 3.61,7.622 2.879,5.821 2.193,4.234 1.551,2.862 0.909,1.489 0.392,0.535 0,0"
             style="fill:#231f20;fill-opacity:1;fill-rule:nonzero;stroke:none"
             id="path238" /></g><g
           id="g240"
           transform="translate(234.1206,346.2461)"><path
             d="m 0,0 c -0.5,-0.428 -1.275,-0.802 -2.327,-1.123 -1.052,-0.32 -2.202,-0.481 -3.45,-0.481 -1.497,0 -2.781,0.223 -3.851,0.668 -1.069,0.446 -1.801,1.061 -2.193,1.846 -0.392,0.819 -0.874,1.88 -1.444,3.182 -0.57,1.302 -1.168,2.755 -1.792,4.359 -0.624,1.605 -1.266,3.308 -1.925,5.109 -0.661,1.799 -1.293,3.627 -1.899,5.482 -0.607,1.854 -1.177,3.672 -1.712,5.456 -0.534,1.782 -0.998,3.458 -1.39,5.027 0.499,0.499 1.221,0.954 2.166,1.365 0.944,0.409 1.952,0.615 3.022,0.615 1.319,0 2.398,-0.277 3.236,-0.829 0.837,-0.554 1.453,-1.578 1.845,-3.076 0.963,-3.496 1.934,-6.838 2.915,-10.029 0.981,-3.192 2.006,-6.517 3.076,-9.975 h 0.321 c 0.963,3.351 1.952,7.007 2.968,10.965 1.017,3.958 1.988,7.897 2.915,11.82 0.642,0.321 1.329,0.589 2.06,0.803 0.73,0.213 1.559,0.321 2.487,0.321 1.319,0 2.442,-0.295 3.369,-0.883 0.927,-0.589 1.391,-1.56 1.391,-2.915 0,-0.785 -0.187,-1.926 -0.561,-3.424 C 8.852,22.786 8.371,21.102 7.782,19.229 7.194,17.357 6.534,15.404 5.803,13.372 5.072,11.34 4.341,9.423 3.61,7.622 2.879,5.821 2.193,4.234 1.551,2.862 0.909,1.489 0.392,0.535 0,0 Z"
             style="fill:none;stroke:#ffffff;stroke-width:1;stroke-linecap:butt;stroke-linejoin:miter;stroke-miterlimit:10;stroke-dasharray:none;stroke-opacity:1"
             id="path242" /></g><g
           id="g244"
           transform="translate(259.0449,350.9531)"><path
             d="m 0,0 c 0.606,0 1.274,0.062 2.006,0.187 0.73,0.125 1.274,0.294 1.631,0.508 v 4.28 L -0.214,4.653 C -1.213,4.582 -2.033,4.368 -2.674,4.012 -3.316,3.655 -3.637,3.12 -3.637,2.407 -3.637,1.693 -3.361,1.114 -2.808,0.669 -2.256,0.223 -1.32,0 0,0 m -0.428,21.021 c 1.926,0 3.681,-0.197 5.269,-0.588 1.586,-0.393 2.941,-0.99 4.065,-1.792 1.123,-0.803 1.987,-1.819 2.594,-3.049 0.605,-1.231 0.909,-2.684 0.909,-4.36 V -0.749 c 0,-0.927 -0.259,-1.685 -0.776,-2.272 C 11.116,-3.61 10.501,-4.118 9.788,-4.546 7.47,-5.937 4.207,-6.632 0,-6.632 c -1.891,0 -3.593,0.179 -5.108,0.534 -1.516,0.357 -2.817,0.892 -3.905,1.606 -1.088,0.713 -1.925,1.622 -2.513,2.727 -0.589,1.105 -0.883,2.389 -0.883,3.851 0,2.461 0.73,4.351 2.193,5.67 1.462,1.319 3.726,2.14 6.793,2.461 l 7.006,0.748 v 0.375 c 0,1.033 -0.454,1.773 -1.363,2.22 -0.909,0.445 -2.22,0.668 -3.931,0.668 -1.356,0 -2.675,-0.143 -3.959,-0.428 -1.284,-0.285 -2.443,-0.642 -3.476,-1.07 -0.464,0.321 -0.856,0.811 -1.177,1.471 -0.321,0.659 -0.482,1.346 -0.482,2.06 0,0.926 0.223,1.666 0.669,2.219 0.446,0.552 1.132,1.025 2.059,1.417 1.034,0.392 2.255,0.677 3.664,0.856 1.409,0.179 2.736,0.268 3.985,0.268"
             style="fill:#231f20;fill-opacity:1;fill-rule:nonzero;stroke:none"
             id="path246" /></g><g
           id="g248"
           transform="translate(259.0449,350.9531)"><path
             d="m 0,0 c 0.606,0 1.274,0.062 2.006,0.187 0.73,0.125 1.274,0.294 1.631,0.508 v 4.28 L -0.214,4.653 C -1.213,4.582 -2.033,4.368 -2.674,4.012 -3.316,3.655 -3.637,3.12 -3.637,2.407 -3.637,1.693 -3.361,1.114 -2.808,0.669 -2.256,0.223 -1.32,0 0,0 Z m -0.428,21.021 c 1.926,0 3.681,-0.197 5.269,-0.588 1.586,-0.393 2.941,-0.99 4.065,-1.792 1.123,-0.803 1.987,-1.819 2.594,-3.049 0.605,-1.231 0.909,-2.684 0.909,-4.36 V -0.749 c 0,-0.927 -0.259,-1.685 -0.776,-2.272 C 11.116,-3.61 10.501,-4.118 9.788,-4.546 7.47,-5.937 4.207,-6.632 0,-6.632 c -1.891,0 -3.593,0.179 -5.108,0.534 -1.516,0.357 -2.817,0.892 -3.905,1.606 -1.088,0.713 -1.925,1.622 -2.513,2.727 -0.589,1.105 -0.883,2.389 -0.883,3.851 0,2.461 0.73,4.351 2.193,5.67 1.462,1.319 3.726,2.14 6.793,2.461 l 7.006,0.748 v 0.375 c 0,1.033 -0.454,1.773 -1.363,2.22 -0.909,0.445 -2.22,0.668 -3.931,0.668 -1.356,0 -2.675,-0.143 -3.959,-0.428 -1.284,-0.285 -2.443,-0.642 -3.476,-1.07 -0.464,0.321 -0.856,0.811 -1.177,1.471 -0.321,0.659 -0.482,1.346 -0.482,2.06 0,0.926 0.223,1.666 0.669,2.219 0.446,0.552 1.132,1.025 2.059,1.417 1.034,0.392 2.255,0.677 3.664,0.856 1.409,0.179 2.736,0.268 3.985,0.268 z"
             style="fill:none;stroke:#ffffff;stroke-width:1;stroke-linecap:butt;stroke-linejoin:miter;stroke-miterlimit:10;stroke-dasharray:none;stroke-opacity:1"
             id="path250" /></g><g
           id="g252"
           transform="translate(286.1089,345.2305)"><path
             d="m 0,0 c -0.356,-0.107 -0.918,-0.214 -1.685,-0.321 -0.767,-0.107 -1.56,-0.16 -2.38,-0.16 -0.785,0 -1.489,0.053 -2.113,0.16 -0.624,0.107 -1.15,0.321 -1.577,0.641 -0.429,0.322 -0.759,0.758 -0.99,1.311 -0.233,0.553 -0.348,1.274 -0.348,2.167 v 16.046 c 0,0.819 0.152,1.524 0.455,2.112 0.303,0.589 0.74,1.114 1.31,1.578 0.57,0.463 1.275,0.883 2.113,1.257 0.838,0.375 1.738,0.704 2.701,0.989 0.963,0.285 1.961,0.509 2.995,0.669 1.034,0.16 2.068,0.241 3.103,0.241 1.711,0 3.066,-0.331 4.065,-0.99 0.998,-0.66 1.497,-1.738 1.497,-3.235 0,-0.5 -0.071,-0.99 -0.213,-1.472 C 8.79,20.512 8.612,20.075 8.397,19.684 7.649,19.684 6.882,19.647 6.098,19.576 5.313,19.504 4.546,19.397 3.798,19.255 3.049,19.112 2.344,18.961 1.685,18.801 1.025,18.64 0.463,18.453 0,18.239 Z"
             style="fill:#231f20;fill-opacity:1;fill-rule:nonzero;stroke:none"
             id="path254" /></g><g
           id="g256"
           transform="translate(286.1089,345.2305)"><path
             d="m 0,0 c -0.356,-0.107 -0.918,-0.214 -1.685,-0.321 -0.767,-0.107 -1.56,-0.16 -2.38,-0.16 -0.785,0 -1.489,0.053 -2.113,0.16 -0.624,0.107 -1.15,0.321 -1.577,0.641 -0.429,0.322 -0.759,0.758 -0.99,1.311 -0.233,0.553 -0.348,1.274 -0.348,2.167 v 16.046 c 0,0.819 0.152,1.524 0.455,2.112 0.303,0.589 0.74,1.114 1.31,1.578 0.57,0.463 1.275,0.883 2.113,1.257 0.838,0.375 1.738,0.704 2.701,0.989 0.963,0.285 1.961,0.509 2.995,0.669 1.034,0.16 2.068,0.241 3.103,0.241 1.711,0 3.066,-0.331 4.065,-0.99 0.998,-0.66 1.497,-1.738 1.497,-3.235 0,-0.5 -0.071,-0.99 -0.213,-1.472 C 8.79,20.512 8.612,20.075 8.397,19.684 7.649,19.684 6.882,19.647 6.098,19.576 5.313,19.504 4.546,19.397 3.798,19.255 3.049,19.112 2.344,18.961 1.685,18.801 1.025,18.64 0.463,18.453 0,18.239 Z"
             style="fill:none;stroke:#ffffff;stroke-width:1;stroke-linecap:butt;stroke-linejoin:miter;stroke-miterlimit:10;stroke-dasharray:none;stroke-opacity:1"
             id="path258" /></g><g
           id="g260"
           transform="translate(308.3066,345.2305)"><path
             d="m 0,0 c -0.393,-0.071 -0.972,-0.169 -1.739,-0.294 -0.767,-0.125 -1.543,-0.187 -2.326,-0.187 -0.785,0 -1.49,0.053 -2.113,0.16 -0.624,0.107 -1.15,0.321 -1.578,0.641 -0.428,0.322 -0.758,0.758 -0.99,1.311 -0.232,0.553 -0.347,1.274 -0.347,2.167 v 21.768 c 0.392,0.072 0.971,0.169 1.738,0.295 0.767,0.124 1.542,0.187 2.327,0.187 0.784,0 1.488,-0.053 2.112,-0.16 0.624,-0.108 1.151,-0.322 1.579,-0.642 0.428,-0.321 0.757,-0.758 0.989,-1.31 C -0.116,23.382 0,22.66 0,21.77 Z m -9.521,33.162 c 0,1.355 0.455,2.495 1.364,3.423 0.909,0.927 2.113,1.391 3.61,1.391 1.498,0 2.701,-0.464 3.611,-1.391 0.91,-0.928 1.364,-2.068 1.364,-3.423 0,-1.355 -0.454,-2.496 -1.364,-3.424 -0.91,-0.926 -2.113,-1.39 -3.611,-1.39 -1.497,0 -2.701,0.464 -3.61,1.39 -0.909,0.928 -1.364,2.069 -1.364,3.424"
             style="fill:#231f20;fill-opacity:1;fill-rule:nonzero;stroke:none"
             id="path262" /></g><g
           id="g264"
           transform="translate(308.3066,345.2305)"><path
             d="m 0,0 c -0.393,-0.071 -0.972,-0.169 -1.739,-0.294 -0.767,-0.125 -1.543,-0.187 -2.326,-0.187 -0.785,0 -1.49,0.053 -2.113,0.16 -0.624,0.107 -1.15,0.321 -1.578,0.641 -0.428,0.322 -0.758,0.758 -0.99,1.311 -0.232,0.553 -0.347,1.274 -0.347,2.167 v 21.768 c 0.392,0.072 0.971,0.169 1.738,0.295 0.767,0.124 1.542,0.187 2.327,0.187 0.784,0 1.488,-0.053 2.112,-0.16 0.624,-0.108 1.151,-0.322 1.579,-0.642 0.428,-0.321 0.757,-0.758 0.989,-1.31 C -0.116,23.382 0,22.66 0,21.77 Z m -9.521,33.162 c 0,1.355 0.455,2.495 1.364,3.423 0.909,0.927 2.113,1.391 3.61,1.391 1.498,0 2.701,-0.464 3.611,-1.391 0.91,-0.928 1.364,-2.068 1.364,-3.423 0,-1.355 -0.454,-2.496 -1.364,-3.424 -0.91,-0.926 -2.113,-1.39 -3.611,-1.39 -1.497,0 -2.701,0.464 -3.61,1.39 -0.909,0.928 -1.364,2.069 -1.364,3.424 z"
             style="fill:none;stroke:#ffffff;stroke-width:1;stroke-linecap:butt;stroke-linejoin:miter;stroke-miterlimit:10;stroke-dasharray:none;stroke-opacity:1"
             id="path266" /></g><g
           id="g268"
           transform="translate(325.208,350.9531)"><path
             d="m 0,0 c 0.606,0 1.275,0.062 2.006,0.187 0.73,0.125 1.274,0.294 1.632,0.508 v 4.28 L -0.214,4.653 C -1.212,4.582 -2.032,4.368 -2.674,4.012 -3.315,3.655 -3.637,3.12 -3.637,2.407 -3.637,1.693 -3.361,1.114 -2.808,0.669 -2.255,0.223 -1.319,0 0,0 m -0.428,21.021 c 1.926,0 3.682,-0.197 5.269,-0.588 1.587,-0.393 2.942,-0.99 4.065,-1.792 1.123,-0.803 1.988,-1.819 2.594,-3.049 0.606,-1.231 0.909,-2.684 0.909,-4.36 V -0.749 c 0,-0.927 -0.259,-1.685 -0.775,-2.272 C 11.116,-3.61 10.502,-4.118 9.789,-4.546 7.471,-5.937 4.208,-6.632 0,-6.632 c -1.89,0 -3.593,0.179 -5.107,0.534 -1.517,0.357 -2.818,0.892 -3.906,1.606 -1.088,0.713 -1.925,1.622 -2.513,2.727 -0.588,1.105 -0.883,2.389 -0.883,3.851 0,2.461 0.73,4.351 2.193,5.67 1.462,1.319 3.726,2.14 6.793,2.461 l 7.007,0.748 v 0.375 c 0,1.033 -0.454,1.773 -1.364,2.22 -0.909,0.445 -2.22,0.668 -3.931,0.668 -1.355,0 -2.675,-0.143 -3.958,-0.428 -1.284,-0.285 -2.443,-0.642 -3.477,-1.07 -0.464,0.321 -0.856,0.811 -1.177,1.471 -0.321,0.659 -0.482,1.346 -0.482,2.06 0,0.926 0.223,1.666 0.669,2.219 0.446,0.552 1.132,1.025 2.06,1.417 1.033,0.392 2.255,0.677 3.664,0.856 1.408,0.179 2.736,0.268 3.984,0.268"
             style="fill:#231f20;fill-opacity:1;fill-rule:nonzero;stroke:none"
             id="path270" /></g><g
           id="g272"
           transform="translate(325.208,350.9531)"><path
             d="m 0,0 c 0.606,0 1.275,0.062 2.006,0.187 0.73,0.125 1.274,0.294 1.632,0.508 v 4.28 L -0.214,4.653 C -1.212,4.582 -2.032,4.368 -2.674,4.012 -3.315,3.655 -3.637,3.12 -3.637,2.407 -3.637,1.693 -3.361,1.114 -2.808,0.669 -2.255,0.223 -1.319,0 0,0 Z m -0.428,21.021 c 1.926,0 3.682,-0.197 5.269,-0.588 1.587,-0.393 2.942,-0.99 4.065,-1.792 1.123,-0.803 1.988,-1.819 2.594,-3.049 0.606,-1.231 0.909,-2.684 0.909,-4.36 V -0.749 c 0,-0.927 -0.259,-1.685 -0.775,-2.272 C 11.116,-3.61 10.502,-4.118 9.789,-4.546 7.471,-5.937 4.208,-6.632 0,-6.632 c -1.89,0 -3.593,0.179 -5.107,0.534 -1.517,0.357 -2.818,0.892 -3.906,1.606 -1.088,0.713 -1.925,1.622 -2.513,2.727 -0.588,1.105 -0.883,2.389 -0.883,3.851 0,2.461 0.73,4.351 2.193,5.67 1.462,1.319 3.726,2.14 6.793,2.461 l 7.007,0.748 v 0.375 c 0,1.033 -0.454,1.773 -1.364,2.22 -0.909,0.445 -2.22,0.668 -3.931,0.668 -1.355,0 -2.675,-0.143 -3.958,-0.428 -1.284,-0.285 -2.443,-0.642 -3.477,-1.07 -0.464,0.321 -0.856,0.811 -1.177,1.471 -0.321,0.659 -0.482,1.346 -0.482,2.06 0,0.926 0.223,1.666 0.669,2.219 0.446,0.552 1.132,1.025 2.06,1.417 1.033,0.392 2.255,0.677 3.664,0.856 1.408,0.179 2.736,0.268 3.984,0.268 z"
             style="fill:none;stroke:#ffffff;stroke-width:1;stroke-linecap:butt;stroke-linejoin:miter;stroke-miterlimit:10;stroke-dasharray:none;stroke-opacity:1"
             id="path274" /></g><g
           id="g276"
           transform="translate(359.6543,361.6504)"><path
             d="M 0,0 C 0,1.105 -0.312,1.917 -0.937,2.435 -1.561,2.95 -2.407,3.21 -3.478,3.21 -4.19,3.21 -4.895,3.12 -5.59,2.942 -6.285,2.764 -6.883,2.496 -7.382,2.14 v -18.56 c -0.356,-0.107 -0.918,-0.214 -1.684,-0.321 -0.768,-0.107 -1.561,-0.16 -2.38,-0.16 -0.785,0 -1.49,0.053 -2.114,0.16 -0.624,0.107 -1.149,0.321 -1.578,0.641 -0.427,0.322 -0.758,0.758 -0.989,1.311 -0.232,0.553 -0.348,1.274 -0.348,2.167 V 3.424 c 0,0.963 0.205,1.746 0.616,2.353 0.409,0.606 0.97,1.159 1.684,1.659 1.212,0.855 2.737,1.55 4.573,2.085 1.836,0.535 3.878,0.802 6.124,0.802 4.03,0 7.132,-0.882 9.308,-2.647 C 8.004,5.911 9.093,3.459 9.093,0.321 V -16.42 c -0.358,-0.107 -0.919,-0.214 -1.686,-0.321 -0.766,-0.107 -1.559,-0.16 -2.38,-0.16 -0.785,0 -1.489,0.053 -2.112,0.16 -0.625,0.107 -1.15,0.321 -1.578,0.641 -0.428,0.322 -0.758,0.758 -0.989,1.311 C 0.115,-14.236 0,-13.515 0,-12.622 Z"
             style="fill:#231f20;fill-opacity:1;fill-rule:nonzero;stroke:none"
             id="path278" /></g><g
           id="g280"
           transform="translate(359.6543,361.6504)"><path
             d="M 0,0 C 0,1.105 -0.312,1.917 -0.937,2.435 -1.561,2.95 -2.407,3.21 -3.478,3.21 -4.19,3.21 -4.895,3.12 -5.59,2.942 -6.285,2.764 -6.883,2.496 -7.382,2.14 v -18.56 c -0.356,-0.107 -0.918,-0.214 -1.684,-0.321 -0.768,-0.107 -1.561,-0.16 -2.38,-0.16 -0.785,0 -1.49,0.053 -2.114,0.16 -0.624,0.107 -1.149,0.321 -1.578,0.641 -0.427,0.322 -0.758,0.758 -0.989,1.311 -0.232,0.553 -0.348,1.274 -0.348,2.167 V 3.424 c 0,0.963 0.205,1.746 0.616,2.353 0.409,0.606 0.97,1.159 1.684,1.659 1.212,0.855 2.737,1.55 4.573,2.085 1.836,0.535 3.878,0.802 6.124,0.802 4.03,0 7.132,-0.882 9.308,-2.647 C 8.004,5.911 9.093,3.459 9.093,0.321 V -16.42 c -0.358,-0.107 -0.919,-0.214 -1.686,-0.321 -0.766,-0.107 -1.559,-0.16 -2.38,-0.16 -0.785,0 -1.489,0.053 -2.112,0.16 -0.625,0.107 -1.15,0.321 -1.578,0.641 -0.428,0.322 -0.758,0.758 -0.989,1.311 C 0.115,-14.236 0,-13.515 0,-12.622 Z"
             style="fill:none;stroke:#ffffff;stroke-width:1;stroke-linecap:butt;stroke-linejoin:miter;stroke-miterlimit:10;stroke-dasharray:none;stroke-opacity:1"
             id="path282" /></g><g
           id="g284"
           transform="translate(383.4551,354.1094)"><path
             d="M 0,0 C 0,-0.928 0.294,-1.587 0.883,-1.979 1.471,-2.372 2.3,-2.567 3.37,-2.567 c 0.534,0 1.087,0.044 1.658,0.133 0.57,0.088 1.07,0.205 1.497,0.348 0.322,-0.393 0.597,-0.829 0.829,-1.31 0.232,-0.482 0.348,-1.062 0.348,-1.739 0,-1.355 -0.508,-2.461 -1.524,-3.316 -1.016,-0.856 -2.808,-1.284 -5.375,-1.284 -3.139,0 -5.555,0.714 -7.248,2.139 -1.694,1.426 -2.54,3.744 -2.54,6.954 v 22.893 c 0.391,0.106 0.953,0.222 1.684,0.348 0.731,0.124 1.506,0.186 2.326,0.186 1.57,0 2.79,-0.276 3.664,-0.829 C -0.437,21.403 0,20.235 0,18.453 V 15.029 H 7.007 C 7.221,14.637 7.426,14.147 7.622,13.559 7.817,12.971 7.916,12.319 7.916,11.606 7.916,10.358 7.64,9.458 7.087,8.905 6.534,8.353 5.794,8.076 4.867,8.076 H 0 Z"
             style="fill:#231f20;fill-opacity:1;fill-rule:nonzero;stroke:none"
             id="path286" /></g><g
           id="g288"
           transform="translate(383.4551,354.1094)"><path
             d="M 0,0 C 0,-0.928 0.294,-1.587 0.883,-1.979 1.471,-2.372 2.3,-2.567 3.37,-2.567 c 0.534,0 1.087,0.044 1.658,0.133 0.57,0.088 1.07,0.205 1.497,0.348 0.322,-0.393 0.597,-0.829 0.829,-1.31 0.232,-0.482 0.348,-1.062 0.348,-1.739 0,-1.355 -0.508,-2.461 -1.524,-3.316 -1.016,-0.856 -2.808,-1.284 -5.375,-1.284 -3.139,0 -5.555,0.714 -7.248,2.139 -1.694,1.426 -2.54,3.744 -2.54,6.954 v 22.893 c 0.391,0.106 0.953,0.222 1.684,0.348 0.731,0.124 1.506,0.186 2.326,0.186 1.57,0 2.79,-0.276 3.664,-0.829 C -0.437,21.403 0,20.235 0,18.453 V 15.029 H 7.007 C 7.221,14.637 7.426,14.147 7.622,13.559 7.817,12.971 7.916,12.319 7.916,11.606 7.916,10.358 7.64,9.458 7.087,8.905 6.534,8.353 5.794,8.076 4.867,8.076 H 0 Z"
             style="fill:none;stroke:#ffffff;stroke-width:1;stroke-linecap:butt;stroke-linejoin:miter;stroke-miterlimit:10;stroke-dasharray:none;stroke-opacity:1"
             id="path290" /></g><g
           id="g292"
           transform="translate(407.1494,372.6162)"><path
             d="m 0,0 c 0,1.532 0.445,2.745 1.337,3.637 0.892,0.89 2.103,1.337 3.638,1.337 h 17.65 c 0.249,-0.393 0.473,-0.91 0.669,-1.551 0.195,-0.642 0.294,-1.319 0.294,-2.032 0,-1.356 -0.294,-2.319 -0.883,-2.889 -0.588,-0.571 -1.363,-0.856 -2.326,-0.856 H 9.093 v -4.974 h 12.035 c 0.249,-0.393 0.472,-0.901 0.668,-1.525 0.196,-0.624 0.295,-1.293 0.295,-2.005 0,-1.356 -0.286,-2.319 -0.857,-2.889 -0.57,-0.57 -1.337,-0.856 -2.299,-0.856 H 9.093 v -5.616 h 13.746 c 0.249,-0.392 0.473,-0.909 0.669,-1.551 0.195,-0.642 0.294,-1.32 0.294,-2.033 0,-1.355 -0.294,-2.326 -0.882,-2.915 -0.589,-0.588 -1.364,-0.882 -2.327,-0.882 H 4.975 c -1.535,0 -2.746,0.446 -3.638,1.337 C 0.445,-25.372 0,-24.159 0,-22.626 Z"
             style="fill:#231f20;fill-opacity:1;fill-rule:nonzero;stroke:none"
             id="path294" /></g><g
           id="g296"
           transform="translate(407.1494,372.6162)"><path
             d="m 0,0 c 0,1.532 0.445,2.745 1.337,3.637 0.892,0.89 2.103,1.337 3.638,1.337 h 17.65 c 0.249,-0.393 0.473,-0.91 0.669,-1.551 0.195,-0.642 0.294,-1.319 0.294,-2.032 0,-1.356 -0.294,-2.319 -0.883,-2.889 -0.588,-0.571 -1.363,-0.856 -2.326,-0.856 H 9.093 v -4.974 h 12.035 c 0.249,-0.393 0.472,-0.901 0.668,-1.525 0.196,-0.624 0.295,-1.293 0.295,-2.005 0,-1.356 -0.286,-2.319 -0.857,-2.889 -0.57,-0.57 -1.337,-0.856 -2.299,-0.856 H 9.093 v -5.616 h 13.746 c 0.249,-0.392 0.473,-0.909 0.669,-1.551 0.195,-0.642 0.294,-1.32 0.294,-2.033 0,-1.355 -0.294,-2.326 -0.882,-2.915 -0.589,-0.588 -1.364,-0.882 -2.327,-0.882 H 4.975 c -1.535,0 -2.746,0.446 -3.638,1.337 C 0.445,-25.372 0,-24.159 0,-22.626 Z"
             style="fill:none;stroke:#ffffff;stroke-width:1;stroke-linecap:butt;stroke-linejoin:miter;stroke-miterlimit:10;stroke-dasharray:none;stroke-opacity:1"
             id="path298" /></g><g
           id="g300"
           transform="translate(435.8721,371.1719)"><path
             d="m 0,0 c 0,1.818 0.312,3.378 0.936,4.68 0.624,1.301 1.47,2.371 2.541,3.209 1.069,0.838 2.326,1.453 3.77,1.845 1.444,0.392 2.986,0.589 4.627,0.589 2.639,0 4.581,-0.347 5.83,-1.043 1.248,-0.695 1.872,-1.882 1.872,-3.557 0,-0.714 -0.152,-1.356 -0.455,-1.926 C 18.818,3.227 18.488,2.799 18.132,2.514 17.454,2.691 16.75,2.843 16.02,2.969 15.288,3.093 14.441,3.155 13.479,3.155 11.945,3.155 10.751,2.896 9.895,2.38 9.039,1.862 8.611,0.963 8.611,-0.321 v -1.712 h 8.772 c 0.214,-0.393 0.419,-0.882 0.615,-1.471 0.195,-0.588 0.294,-1.239 0.294,-1.952 0,-1.248 -0.276,-2.148 -0.829,-2.701 -0.553,-0.553 -1.293,-0.829 -2.22,-0.829 h -6.15 v -16.955 c -0.358,-0.108 -0.919,-0.214 -1.686,-0.322 -0.766,-0.106 -1.559,-0.16 -2.38,-0.16 -0.784,0 -1.489,0.054 -2.112,0.16 -0.625,0.108 -1.15,0.322 -1.578,0.642 -0.428,0.321 -0.758,0.758 -0.989,1.31 C 0.115,-23.758 0,-23.036 0,-22.144 Z"
             style="fill:#231f20;fill-opacity:1;fill-rule:nonzero;stroke:none"
             id="path302" /></g><g
           id="g304"
           transform="translate(435.8721,371.1719)"><path
             d="m 0,0 c 0,1.818 0.312,3.378 0.936,4.68 0.624,1.301 1.47,2.371 2.541,3.209 1.069,0.838 2.326,1.453 3.77,1.845 1.444,0.392 2.986,0.589 4.627,0.589 2.639,0 4.581,-0.347 5.83,-1.043 1.248,-0.695 1.872,-1.882 1.872,-3.557 0,-0.714 -0.152,-1.356 -0.455,-1.926 C 18.818,3.227 18.488,2.799 18.132,2.514 17.454,2.691 16.75,2.843 16.02,2.969 15.288,3.093 14.441,3.155 13.479,3.155 11.945,3.155 10.751,2.896 9.895,2.38 9.039,1.862 8.611,0.963 8.611,-0.321 v -1.712 h 8.772 c 0.214,-0.393 0.419,-0.882 0.615,-1.471 0.195,-0.588 0.294,-1.239 0.294,-1.952 0,-1.248 -0.276,-2.148 -0.829,-2.701 -0.553,-0.553 -1.293,-0.829 -2.22,-0.829 h -6.15 v -16.955 c -0.358,-0.108 -0.919,-0.214 -1.686,-0.322 -0.766,-0.106 -1.559,-0.16 -2.38,-0.16 -0.784,0 -1.489,0.054 -2.112,0.16 -0.625,0.108 -1.15,0.322 -1.578,0.642 -0.428,0.321 -0.758,0.758 -0.989,1.31 C 0.115,-23.758 0,-23.036 0,-22.144 Z"
             style="fill:none;stroke:#ffffff;stroke-width:1;stroke-linecap:butt;stroke-linejoin:miter;stroke-miterlimit:10;stroke-dasharray:none;stroke-opacity:1"
             id="path306" /></g><g
           id="g308"
           transform="translate(458.0693,371.1719)"><path
             d="m 0,0 c 0,1.818 0.312,3.378 0.936,4.68 0.624,1.301 1.47,2.371 2.541,3.209 1.069,0.838 2.326,1.453 3.77,1.845 1.444,0.392 2.986,0.589 4.627,0.589 2.639,0 4.581,-0.347 5.83,-1.043 1.248,-0.695 1.872,-1.882 1.872,-3.557 0,-0.714 -0.152,-1.356 -0.455,-1.926 C 18.818,3.227 18.488,2.799 18.132,2.514 17.454,2.691 16.75,2.843 16.02,2.969 15.288,3.093 14.441,3.155 13.479,3.155 11.945,3.155 10.751,2.896 9.895,2.38 9.039,1.862 8.611,0.963 8.611,-0.321 v -1.712 h 8.772 c 0.214,-0.393 0.419,-0.882 0.615,-1.471 0.195,-0.588 0.294,-1.239 0.294,-1.952 0,-1.248 -0.276,-2.148 -0.829,-2.701 -0.553,-0.553 -1.293,-0.829 -2.22,-0.829 h -6.15 v -16.955 c -0.358,-0.108 -0.919,-0.214 -1.686,-0.322 -0.766,-0.106 -1.559,-0.16 -2.38,-0.16 -0.784,0 -1.489,0.054 -2.112,0.16 -0.625,0.108 -1.15,0.322 -1.578,0.642 -0.428,0.321 -0.758,0.758 -0.989,1.31 C 0.115,-23.758 0,-23.036 0,-22.144 Z"
             style="fill:#231f20;fill-opacity:1;fill-rule:nonzero;stroke:none"
             id="path310" /></g><g
           id="g312"
           transform="translate(458.0693,371.1719)"><path
             d="m 0,0 c 0,1.818 0.312,3.378 0.936,4.68 0.624,1.301 1.47,2.371 2.541,3.209 1.069,0.838 2.326,1.453 3.77,1.845 1.444,0.392 2.986,0.589 4.627,0.589 2.639,0 4.581,-0.347 5.83,-1.043 1.248,-0.695 1.872,-1.882 1.872,-3.557 0,-0.714 -0.152,-1.356 -0.455,-1.926 C 18.818,3.227 18.488,2.799 18.132,2.514 17.454,2.691 16.75,2.843 16.02,2.969 15.288,3.093 14.441,3.155 13.479,3.155 11.945,3.155 10.751,2.896 9.895,2.38 9.039,1.862 8.611,0.963 8.611,-0.321 v -1.712 h 8.772 c 0.214,-0.393 0.419,-0.882 0.615,-1.471 0.195,-0.588 0.294,-1.239 0.294,-1.952 0,-1.248 -0.276,-2.148 -0.829,-2.701 -0.553,-0.553 -1.293,-0.829 -2.22,-0.829 h -6.15 v -16.955 c -0.358,-0.108 -0.919,-0.214 -1.686,-0.322 -0.766,-0.106 -1.559,-0.16 -2.38,-0.16 -0.784,0 -1.489,0.054 -2.112,0.16 -0.625,0.108 -1.15,0.322 -1.578,0.642 -0.428,0.321 -0.758,0.758 -0.989,1.31 C 0.115,-23.758 0,-23.036 0,-22.144 Z"
             style="fill:none;stroke:#ffffff;stroke-width:1;stroke-linecap:butt;stroke-linejoin:miter;stroke-miterlimit:10;stroke-dasharray:none;stroke-opacity:1"
             id="path314" /></g><g
           id="g316"
           transform="translate(492.0342,365.3418)"><path
             d="M 0,0 C -0.856,0 -1.597,-0.144 -2.22,-0.428 -2.845,-0.714 -3.353,-1.079 -3.744,-1.524 -4.138,-1.971 -4.432,-2.47 -4.627,-3.022 -4.823,-3.575 -4.939,-4.138 -4.975,-4.707 L 4.172,-3.21 C 4.064,-2.497 3.672,-1.784 2.995,-1.07 2.317,-0.357 1.318,0 0,0 m 1.497,-21.021 c -2.104,0 -4.057,0.294 -5.856,0.882 -1.801,0.589 -3.37,1.472 -4.707,2.649 -1.337,1.177 -2.39,2.655 -3.157,4.439 -0.766,1.782 -1.149,3.868 -1.149,6.258 0,2.354 0.383,4.377 1.149,6.07 0.767,1.694 1.774,3.084 3.023,4.172 1.248,1.088 2.675,1.89 4.279,2.407 1.605,0.517 3.244,0.776 4.921,0.776 1.89,0 3.61,-0.285 5.161,-0.856 1.551,-0.571 2.889,-1.355 4.012,-2.353 1.123,-0.999 1.996,-2.194 2.621,-3.584 0.623,-1.391 0.935,-2.906 0.935,-4.546 0,-1.213 -0.338,-2.14 -1.015,-2.781 -0.679,-0.643 -1.623,-1.053 -2.835,-1.231 l -13.212,-1.979 c 0.393,-1.176 1.194,-2.059 2.407,-2.648 1.212,-0.588 2.603,-0.882 4.172,-0.882 1.462,0 2.843,0.187 4.146,0.562 1.3,0.374 2.361,0.811 3.182,1.311 0.57,-0.358 1.051,-0.857 1.445,-1.499 0.391,-0.641 0.587,-1.319 0.587,-2.032 0,-1.604 -0.749,-2.8 -2.246,-3.584 -1.141,-0.606 -2.425,-1.016 -3.851,-1.23 -1.427,-0.214 -2.764,-0.321 -4.012,-0.321"
             style="fill:#231f20;fill-opacity:1;fill-rule:nonzero;stroke:none"
             id="path318" /></g><g
           id="g320"
           transform="translate(492.0342,365.3418)"><path
             d="M 0,0 C -0.856,0 -1.597,-0.144 -2.22,-0.428 -2.845,-0.714 -3.353,-1.079 -3.744,-1.524 -4.138,-1.971 -4.432,-2.47 -4.627,-3.022 -4.823,-3.575 -4.939,-4.138 -4.975,-4.707 L 4.172,-3.21 C 4.064,-2.497 3.672,-1.784 2.995,-1.07 2.317,-0.357 1.318,0 0,0 Z m 1.497,-21.021 c -2.104,0 -4.057,0.294 -5.856,0.882 -1.801,0.589 -3.37,1.472 -4.707,2.649 -1.337,1.177 -2.39,2.655 -3.157,4.439 -0.766,1.782 -1.149,3.868 -1.149,6.258 0,2.354 0.383,4.377 1.149,6.07 0.767,1.694 1.774,3.084 3.023,4.172 1.248,1.088 2.675,1.89 4.279,2.407 1.605,0.517 3.244,0.776 4.921,0.776 1.89,0 3.61,-0.285 5.161,-0.856 1.551,-0.571 2.889,-1.355 4.012,-2.353 1.123,-0.999 1.996,-2.194 2.621,-3.584 0.623,-1.391 0.935,-2.906 0.935,-4.546 0,-1.213 -0.338,-2.14 -1.015,-2.781 -0.679,-0.643 -1.623,-1.053 -2.835,-1.231 l -13.212,-1.979 c 0.393,-1.176 1.194,-2.059 2.407,-2.648 1.212,-0.588 2.603,-0.882 4.172,-0.882 1.462,0 2.843,0.187 4.146,0.562 1.3,0.374 2.361,0.811 3.182,1.311 0.57,-0.358 1.051,-0.857 1.445,-1.499 0.391,-0.641 0.587,-1.319 0.587,-2.032 0,-1.604 -0.749,-2.8 -2.246,-3.584 -1.141,-0.606 -2.425,-1.016 -3.851,-1.23 -1.427,-0.214 -2.764,-0.321 -4.012,-0.321 z"
             style="fill:none;stroke:#ffffff;stroke-width:1;stroke-linecap:butt;stroke-linejoin:miter;stroke-miterlimit:10;stroke-dasharray:none;stroke-opacity:1"
             id="path322" /></g><g
           id="g324"
           transform="translate(523.8047,364.8066)"><path
             d="m 0,0 c -0.892,0 -1.738,-0.143 -2.54,-0.428 -0.803,-0.286 -1.498,-0.705 -2.086,-1.257 -0.589,-0.553 -1.061,-1.239 -1.418,-2.059 -0.356,-0.82 -0.534,-1.783 -0.534,-2.889 0,-2.211 0.632,-3.869 1.898,-4.973 1.266,-1.107 2.808,-1.659 4.627,-1.659 1.07,0 1.996,0.124 2.782,0.374 0.783,0.249 1.478,0.517 2.085,0.803 0.713,-0.5 1.248,-1.043 1.605,-1.632 0.355,-0.588 0.535,-1.293 0.535,-2.112 0,-1.463 -0.695,-2.595 -2.086,-3.397 -1.391,-0.802 -3.316,-1.204 -5.777,-1.204 -2.246,0 -4.278,0.33 -6.098,0.991 -1.818,0.659 -3.379,1.586 -4.68,2.781 -1.301,1.194 -2.309,2.629 -3.022,4.306 -0.714,1.675 -1.069,3.53 -1.069,5.562 0,2.354 0.382,4.413 1.149,6.178 0.767,1.765 1.81,3.218 3.13,4.359 1.318,1.141 2.843,1.996 4.573,2.568 1.729,0.57 3.557,0.855 5.483,0.855 2.567,0 4.546,-0.464 5.936,-1.391 C 5.884,4.849 6.579,3.654 6.579,2.193 6.579,1.516 6.419,0.883 6.098,0.294 5.777,-0.294 5.402,-0.803 4.975,-1.23 4.368,-0.945 3.638,-0.669 2.781,-0.401 1.926,-0.134 0.998,0 0,0"
             style="fill:#231f20;fill-opacity:1;fill-rule:nonzero;stroke:none"
             id="path326" /></g><g
           id="g328"
           transform="translate(523.8047,364.8066)"><path
             d="m 0,0 c -0.892,0 -1.738,-0.143 -2.54,-0.428 -0.803,-0.286 -1.498,-0.705 -2.086,-1.257 -0.589,-0.553 -1.061,-1.239 -1.418,-2.059 -0.356,-0.82 -0.534,-1.783 -0.534,-2.889 0,-2.211 0.632,-3.869 1.898,-4.973 1.266,-1.107 2.808,-1.659 4.627,-1.659 1.07,0 1.996,0.124 2.782,0.374 0.783,0.249 1.478,0.517 2.085,0.803 0.713,-0.5 1.248,-1.043 1.605,-1.632 0.355,-0.588 0.535,-1.293 0.535,-2.112 0,-1.463 -0.695,-2.595 -2.086,-3.397 -1.391,-0.802 -3.316,-1.204 -5.777,-1.204 -2.246,0 -4.278,0.33 -6.098,0.991 -1.818,0.659 -3.379,1.586 -4.68,2.781 -1.301,1.194 -2.309,2.629 -3.022,4.306 -0.714,1.675 -1.069,3.53 -1.069,5.562 0,2.354 0.382,4.413 1.149,6.178 0.767,1.765 1.81,3.218 3.13,4.359 1.318,1.141 2.843,1.996 4.573,2.568 1.729,0.57 3.557,0.855 5.483,0.855 2.567,0 4.546,-0.464 5.936,-1.391 C 5.884,4.849 6.579,3.654 6.579,2.193 6.579,1.516 6.419,0.883 6.098,0.294 5.777,-0.294 5.402,-0.803 4.975,-1.23 4.368,-0.945 3.638,-0.669 2.781,-0.401 1.926,-0.134 0.998,0 0,0 Z"
             style="fill:none;stroke:#ffffff;stroke-width:1;stroke-linecap:butt;stroke-linejoin:miter;stroke-miterlimit:10;stroke-dasharray:none;stroke-opacity:1"
             id="path330" /></g><g
           id="g332"
           transform="translate(544.3975,354.1094)"><path
             d="M 0,0 C 0,-0.928 0.294,-1.587 0.883,-1.979 1.471,-2.372 2.3,-2.567 3.37,-2.567 c 0.534,0 1.087,0.044 1.658,0.133 0.57,0.088 1.07,0.205 1.497,0.348 0.322,-0.393 0.597,-0.829 0.829,-1.31 0.232,-0.482 0.348,-1.062 0.348,-1.739 0,-1.355 -0.508,-2.461 -1.524,-3.316 -1.016,-0.856 -2.808,-1.284 -5.375,-1.284 -3.139,0 -5.555,0.714 -7.248,2.139 -1.694,1.426 -2.54,3.744 -2.54,6.954 v 22.893 c 0.391,0.106 0.953,0.222 1.684,0.348 0.731,0.124 1.506,0.186 2.326,0.186 1.57,0 2.79,-0.276 3.664,-0.829 C -0.437,21.403 0,20.235 0,18.453 V 15.029 H 7.007 C 7.221,14.637 7.426,14.147 7.622,13.559 7.817,12.971 7.916,12.319 7.916,11.606 7.916,10.358 7.64,9.458 7.087,8.905 6.534,8.353 5.794,8.076 4.867,8.076 H 0 Z"
             style="fill:#231f20;fill-opacity:1;fill-rule:nonzero;stroke:none"
             id="path334" /></g><g
           id="g336"
           transform="translate(544.3975,354.1094)"><path
             d="M 0,0 C 0,-0.928 0.294,-1.587 0.883,-1.979 1.471,-2.372 2.3,-2.567 3.37,-2.567 c 0.534,0 1.087,0.044 1.658,0.133 0.57,0.088 1.07,0.205 1.497,0.348 0.322,-0.393 0.597,-0.829 0.829,-1.31 0.232,-0.482 0.348,-1.062 0.348,-1.739 0,-1.355 -0.508,-2.461 -1.524,-3.316 -1.016,-0.856 -2.808,-1.284 -5.375,-1.284 -3.139,0 -5.555,0.714 -7.248,2.139 -1.694,1.426 -2.54,3.744 -2.54,6.954 v 22.893 c 0.391,0.106 0.953,0.222 1.684,0.348 0.731,0.124 1.506,0.186 2.326,0.186 1.57,0 2.79,-0.276 3.664,-0.829 C -0.437,21.403 0,20.235 0,18.453 V 15.029 H 7.007 C 7.221,14.637 7.426,14.147 7.622,13.559 7.817,12.971 7.916,12.319 7.916,11.606 7.916,10.358 7.64,9.458 7.087,8.905 6.534,8.353 5.794,8.076 4.867,8.076 H 0 Z"
             style="fill:none;stroke:#ffffff;stroke-width:1;stroke-linecap:butt;stroke-linejoin:miter;stroke-miterlimit:10;stroke-dasharray:none;stroke-opacity:1"
             id="path338" /></g><g
           id="g340"
           transform="translate(578.6289,352.9326)"><path
             d="m 0,0 c 0,-2.711 -1.016,-4.832 -3.049,-6.365 -2.032,-1.532 -5.027,-2.3 -8.985,-2.3 -1.498,0 -2.889,0.106 -4.172,0.321 -1.284,0.214 -2.381,0.544 -3.29,0.99 -0.909,0.445 -1.623,1.006 -2.14,1.684 -0.516,0.677 -0.775,1.48 -0.775,2.407 0,0.856 0.178,1.578 0.535,2.166 0.355,0.588 0.784,1.078 1.283,1.471 1.034,-0.57 2.22,-1.079 3.558,-1.524 1.337,-0.447 2.879,-0.668 4.626,-0.668 1.105,0 1.952,0.16 2.541,0.481 0.588,0.32 0.883,0.748 0.883,1.283 0,0.499 -0.214,0.891 -0.643,1.177 -0.428,0.285 -1.142,0.517 -2.139,0.695 l -1.605,0.322 c -3.102,0.605 -5.411,1.559 -6.926,2.861 -1.516,1.301 -2.273,3.164 -2.273,5.589 0,1.319 0.285,2.514 0.855,3.584 0.57,1.07 1.372,1.961 2.407,2.675 1.035,0.713 2.274,1.264 3.717,1.658 1.445,0.391 3.04,0.588 4.787,0.588 1.32,0 2.559,-0.099 3.718,-0.294 1.158,-0.197 2.166,-0.491 3.023,-0.883 0.855,-0.393 1.532,-0.9 2.032,-1.524 0.499,-0.624 0.749,-1.365 0.749,-2.22 0,-0.82 -0.153,-1.525 -0.455,-2.112 -0.303,-0.589 -0.687,-1.08 -1.15,-1.472 -0.286,0.179 -0.714,0.365 -1.284,0.562 -0.57,0.196 -1.195,0.374 -1.872,0.535 -0.678,0.161 -1.364,0.294 -2.06,0.401 -0.695,0.107 -1.328,0.16 -1.898,0.16 -1.177,0 -2.086,-0.134 -2.727,-0.4 -0.643,-0.268 -0.963,-0.688 -0.963,-1.258 0,-0.393 0.177,-0.713 0.535,-0.962 0.355,-0.25 1.033,-0.482 2.032,-0.695 L -9.467,8.558 C -6.044,7.773 -3.61,6.694 -2.166,5.322 -0.722,3.948 0,2.175 0,0"
             style="fill:#231f20;fill-opacity:1;fill-rule:nonzero;stroke:none"
             id="path342" /></g><g
           id="g344"
           transform="translate(578.6289,352.9326)"><path
             d="m 0,0 c 0,-2.711 -1.016,-4.832 -3.049,-6.365 -2.032,-1.532 -5.027,-2.3 -8.985,-2.3 -1.498,0 -2.889,0.106 -4.172,0.321 -1.284,0.214 -2.381,0.544 -3.29,0.99 -0.909,0.445 -1.623,1.006 -2.14,1.684 -0.516,0.677 -0.775,1.48 -0.775,2.407 0,0.856 0.178,1.578 0.535,2.166 0.355,0.588 0.784,1.078 1.283,1.471 1.034,-0.57 2.22,-1.079 3.558,-1.524 1.337,-0.447 2.879,-0.668 4.626,-0.668 1.105,0 1.952,0.16 2.541,0.481 0.588,0.32 0.883,0.748 0.883,1.283 0,0.499 -0.214,0.891 -0.643,1.177 -0.428,0.285 -1.142,0.517 -2.139,0.695 l -1.605,0.322 c -3.102,0.605 -5.411,1.559 -6.926,2.861 -1.516,1.301 -2.273,3.164 -2.273,5.589 0,1.319 0.285,2.514 0.855,3.584 0.57,1.07 1.372,1.961 2.407,2.675 1.035,0.713 2.274,1.264 3.717,1.658 1.445,0.391 3.04,0.588 4.787,0.588 1.32,0 2.559,-0.099 3.718,-0.294 1.158,-0.197 2.166,-0.491 3.023,-0.883 0.855,-0.393 1.532,-0.9 2.032,-1.524 0.499,-0.624 0.749,-1.365 0.749,-2.22 0,-0.82 -0.153,-1.525 -0.455,-2.112 -0.303,-0.589 -0.687,-1.08 -1.15,-1.472 -0.286,0.179 -0.714,0.365 -1.284,0.562 -0.57,0.196 -1.195,0.374 -1.872,0.535 -0.678,0.161 -1.364,0.294 -2.06,0.401 -0.695,0.107 -1.328,0.16 -1.898,0.16 -1.177,0 -2.086,-0.134 -2.727,-0.4 -0.643,-0.268 -0.963,-0.688 -0.963,-1.258 0,-0.393 0.177,-0.713 0.535,-0.962 0.355,-0.25 1.033,-0.482 2.032,-0.695 L -9.467,8.558 C -6.044,7.773 -3.61,6.694 -2.166,5.322 -0.722,3.948 0,2.175 0,0 Z"
             style="fill:none;stroke:#ffffff;stroke-width:1;stroke-linecap:butt;stroke-linejoin:miter;stroke-miterlimit:10;stroke-dasharray:none;stroke-opacity:1"
             id="path346" /></g></g></g></g></svg>
